HIERARCHY
ROOT Hips
{
  OFFSET 0.000 67.698 0.000
  CHANNELS 6 Xposition Yposition Zposition Zrotation Xrotation Yrotation
  JOINT LeftUpLeg
  {
    OFFSET 7.501 0.881 3.410
    CHANNELS 6 Xposition Yposition Zposition Zrotation Xrotation Yrotation
    JOINT LeftLeg
    {
      OFFSET 0.000 -32.439 0.000
      CHANNELS 6 Xposition Yposition Zposition Zrotation Xrotation Yrotation
      JOINT LeftFoot
      {
        OFFSET 0.000 -36.140 0.000
        CHANNELS 6 Xposition Yposition Zposition Zrotation Xrotation Yrotation
        End Site
        {
          OFFSET 0.000 0.000 10.112
        }
      }
    }
  }
  JOINT RightUpLeg
  {
    OFFSET -7.501 0.881 3.410
    CHANNELS 6 Xposition Yposition Zposition Zrotation Xrotation Yrotation
    JOINT RightLeg
    {
      OFFSET 0.000 -32.439 0.000
      CHANNELS 6 Xposition Yposition Zposition Zrotation Xrotation Yrotation
      JOINT RightFoot
      {
        OFFSET 0.000 -36.140 0.000
        CHANNELS 6 Xposition Yposition Zposition Zrotation Xrotation Yrotation
        End Site
        {
          OFFSET 0.000 0.000 10.112
        }
      }
    }
  }
  JOINT Spine
  {
    OFFSET 0.000 29.171 0.000
    CHANNELS 6 Xposition Yposition Zposition Zrotation Xrotation Yrotation
    JOINT Spine1
    {
      OFFSET 0.000 21.980 0.000
      CHANNELS 6 Xposition Yposition Zposition Zrotation Xrotation Yrotation
      JOINT LeftShoulder
      {
        OFFSET 1.534 -0.353 0.483
        CHANNELS 6 Xposition Yposition Zposition Zrotation Xrotation Yrotation
        JOINT LeftArm
        {
          OFFSET 16.666 0.000 0.000
          CHANNELS 6 Xposition Yposition Zposition Zrotation Xrotation Yrotation
          JOINT LeftForeArm
          {
            OFFSET 23.531 0.000 0.000
            CHANNELS 6 Xposition Yposition Zposition Zrotation Xrotation Yrotation
            JOINT LeftHand
            {
              OFFSET 21.427 0.000 0.000
              CHANNELS 6 Xposition Yposition Zposition Zrotation Xrotation Yrotation
              JOINT LeftHandThumb1
              {
                OFFSET 4.877 -1.044 3.608
                CHANNELS 6 Xposition Yposition Zposition Zrotation Xrotation Yrotation
                JOINT LeftHandThumb2
                {
                  OFFSET 2.665 0.000 0.000
                  CHANNELS 6 Xposition Yposition Zposition Zrotation Xrotation Yrotation
                  JOINT LeftHandThumb3
                  {
                    OFFSET 2.543 0.000 0.000
                    CHANNELS 6 Xposition Yposition Zposition Zrotation Xrotation Yrotation
                    End Site
                    {
                      OFFSET 2.667 0.000 0.000
                    }
                  }
                }
              }
              JOINT LeftHandIndex1
              {
                OFFSET 9.232 -0.301 2.144
                CHANNELS 6 Xposition Yposition Zposition Zrotation Xrotation Yrotation
                JOINT LeftHandIndex2
                {
                  OFFSET 4.225 -0.000 0.000
                  CHANNELS 6 Xposition Yposition Zposition Zrotation Xrotation Yrotation
                  JOINT LeftHandIndex3
                  {
                    OFFSET 2.654 0.000 -0.000
                    CHANNELS 6 Xposition Yposition Zposition Zrotation Xrotation Yrotation
                    End Site
                    {
                      OFFSET 1.958 0.000 0.000
                    }
                  }
                }
              }
              JOINT LeftHandMiddle1
              {
                OFFSET 8.920 0.000 0.000
                CHANNELS 6 Xposition Yposition Zposition Zrotation Xrotation Yrotation
                JOINT LeftHandMiddle2
                {
                  OFFSET 4.863 0.000 -0.000
                  CHANNELS 6 Xposition Yposition Zposition Zrotation Xrotation Yrotation
                  JOINT LeftHandMiddle3
                  {
                    OFFSET 2.765 -0.000 -0.000
                    CHANNELS 6 Xposition Yposition Zposition Zrotation Xrotation Yrotation
                    End Site
                    {
                      OFFSET 2.006 0.000 0.000
                    }
                  }
                }
              }
              JOINT LeftHandRing1
              {
                OFFSET 8.689 -0.126 -2.087
                CHANNELS 6 Xposition Yposition Zposition Zrotation Xrotation Yrotation
                JOINT LeftHandRing2
                {
                  OFFSET 4.538 -0.000 -0.000
                  CHANNELS 6 Xposition Yposition Zposition Zrotation Xrotation Yrotation
                  JOINT LeftHandRing3
                  {
                    OFFSET 2.305 -0.000 -0.000
                    CHANNELS 6 Xposition Yposition Zposition Zrotation Xrotation Yrotation
                    End Site
                    {
                      OFFSET 1.923 0.000 0.000
                    }
                  }
                }
              }
              JOINT LeftHandPinky1
              {
                OFFSET 8.391 -0.817 -3.758
                CHANNELS 6 Xposition Yposition Zposition Zrotation Xrotation Yrotation
                JOINT LeftHandPinky2
                {
                  OFFSET 3.044 0.000 0.000
                  CHANNELS 6 Xposition Yposition Zposition Zrotation Xrotation Yrotation
                  JOINT LeftHandPinky3
                  {
                    OFFSET 1.975 0.000 0.000
                    CHANNELS 6 Xposition Yposition Zposition Zrotation Xrotation Yrotation
                    End Site
                    {
                      OFFSET 1.667 0.000 0.000
                    }
                  }
                }
              }
            }
          }
        }
      }
      JOINT RightShoulder
      {
        OFFSET -1.534 -0.353 0.483
        CHANNELS 6 Xposition Yposition Zposition Zrotation Xrotation Yrotation
        JOINT RightArm
        {
          OFFSET -16.666 0.000 0.000
          CHANNELS 6 Xposition Yposition Zposition Zrotation Xrotation Yrotation
          JOINT RightForeArm
          {
            OFFSET -23.531 0.000 0.000
            CHANNELS 6 Xposition Yposition Zposition Zrotation Xrotation Yrotation
            JOINT RightHand
            {
              OFFSET -21.427 0.000 0.000
              CHANNELS 6 Xposition Yposition Zposition Zrotation Xrotation Yrotation
              JOINT RightHandThumb1
              {
                OFFSET -4.877 -1.044 3.608
                CHANNELS 6 Xposition Yposition Zposition Zrotation Xrotation Yrotation
                JOINT RightHandThumb2
                {
                  OFFSET -2.665 -0.000 0.000
                  CHANNELS 6 Xposition Yposition Zposition Zrotation Xrotation Yrotation
                  JOINT RightHandThumb3
                  {
                    OFFSET -2.543 -0.000 -0.000
                    CHANNELS 6 Xposition Yposition Zposition Zrotation Xrotation Yrotation
                    End Site
                    {
                      OFFSET -2.667 0.000 -0.000
                    }
                  }
                }
              }
              JOINT RightHandIndex1
              {
                OFFSET -9.232 -0.301 2.144
                CHANNELS 6 Xposition Yposition Zposition Zrotation Xrotation Yrotation
                JOINT RightHandIndex2
                {
                  OFFSET -4.225 0.000 0.000
                  CHANNELS 6 Xposition Yposition Zposition Zrotation Xrotation Yrotation
                  JOINT RightHandIndex3
                  {
                    OFFSET -2.654 -0.000 -0.000
                    CHANNELS 6 Xposition Yposition Zposition Zrotation Xrotation Yrotation
                    End Site
                    {
                      OFFSET -1.958 0.000 0.000
                    }
                  }
                }
              }
              JOINT RightHandMiddle1
              {
                OFFSET -8.920 0.000 0.000
                CHANNELS 6 Xposition Yposition Zposition Zrotation Xrotation Yrotation
                JOINT RightHandMiddle2
                {
                  OFFSET -4.863 0.000 0.000
                  CHANNELS 6 Xposition Yposition Zposition Zrotation Xrotation Yrotation
                  JOINT RightHandMiddle3
                  {
                    OFFSET -2.765 0.000 -0.000
                    CHANNELS 6 Xposition Yposition Zposition Zrotation Xrotation Yrotation
                    End Site
                    {
                      OFFSET -2.006 0.000 0.000
                    }
                  }
                }
              }
              JOINT RightHandRing1
              {
                OFFSET -8.689 -0.126 -2.087
                CHANNELS 6 Xposition Yposition Zposition Zrotation Xrotation Yrotation
                JOINT RightHandRing2
                {
                  OFFSET -4.538 0.000 0.000
                  CHANNELS 6 Xposition Yposition Zposition Zrotation Xrotation Yrotation
                  JOINT RightHandRing3
                  {
                    OFFSET -2.305 0.000 0.000
                    CHANNELS 6 Xposition Yposition Zposition Zrotation Xrotation Yrotation
                    End Site
                    {
                      OFFSET -1.923 -0.000 0.000
                    }
                  }
                }
              }
              JOINT RightHandPinky1
              {
                OFFSET -8.391 -0.817 -3.758
                CHANNELS 6 Xposition Yposition Zposition Zrotation Xrotation Yrotation
                JOINT RightHandPinky2
                {
                  OFFSET -3.044 -0.000 0.000
                  CHANNELS 6 Xposition Yposition Zposition Zrotation Xrotation Yrotation
                  JOINT RightHandPinky3
                  {
                    OFFSET -1.975 0.000 0.000
                    CHANNELS 6 Xposition Yposition Zposition Zrotation Xrotation Yrotation
                    End Site
                    {
                      OFFSET -1.667 0.000 0.000
                    }
                  }
                }
              }
            }
          }
        }
      }
      JOINT Neck
      {
        OFFSET 0.000 0.730 0.000
        CHANNELS 6 Xposition Yposition Zposition Zrotation Xrotation Yrotation
        JOINT Head
        {
          OFFSET 0.000 6.313 0.000
          CHANNELS 6 Xposition Yposition Zposition Zrotation Xrotation Yrotation
          End Site
          {
            OFFSET 0.000 13.062 0.000
          }
        }
      }
    }
  }
}
MOTION
Frames:	4
Frame Time:	0.033333
-105.76409 76.73629 -232.16112 0.16004 -0.80806 17.81807 7.70824 -0.07775 3.50602 -10.53131 -0.85130 -2.78937 -0.00261 -36.58693 -0.00352 15.93975 0.56928 -27.01632 0.00317 -34.05763 0.00065 19.03087 41.51124 -27.50126 -6.87591 1.21656 3.50607 1.37504 -9.00984 16.92615 0.00961 -29.80468 0.00612 8.74259 21.50865 9.07839 -0.00342 -39.77929 0.00713 0.27720 16.99677 -0.50146 0.00968 30.31191 0.01168 -0.28454 1.99112 -0.78477 0.00019 22.32410 0.00410 -0.35074 2.47416 -0.60457 1.64067 -0.59037 0.41491 -18.90538 4.68794 -13.42179 16.11771 0.01151 0.00842 -59.02021 1.85301 -3.76613 27.98968 0.00292 -0.00273 -5.43656 0.44964 -14.77108 22.26702 0.00291 -0.00414 -8.65446 0.02839 -6.99075 4.87701 -1.04401 3.60802 -25.59443 3.53642 -9.01102 2.66500 0.00000 0.00001 -0.00000 0.00000 9.73019 2.54300 0.00000 0.00001 0.00000 0.00000 17.42832 9.23201 -0.30100 2.14401 -23.23776 -0.00000 0.00000 4.22500 -0.00001 0.00000 -28.50758 0.00000 0.00000 2.65400 0.00001 -0.00001 -32.07130 2.50419 -4.00702 8.92000 0.00000 0.00002 -23.23776 -0.00000 0.00000 4.86299 0.00000 -0.00002 -28.50758 0.00000 0.00000 2.76501 -0.00001 -0.00002 -32.07130 2.50419 -4.00702 8.68901 -0.12600 -2.08699 -23.23776 -0.00000 0.00000 4.53799 -0.00001 -0.00002 -28.50758 0.00000 0.00000 2.30501 -0.00001 -0.00001 -32.07130 2.50419 -4.00702 8.39101 -0.81700 -3.75799 -23.23776 -0.00000 0.00000 3.04399 0.00000 0.00000 -28.50758 0.00000 0.00000 1.97500 0.00000 0.00002 -32.07130 2.50419 -4.00702 -1.52712 -0.60176 0.42004 20.46910 5.44904 14.26474 -15.19575 0.00018 -0.00221 54.25172 0.51046 -0.05653 -25.83256 0.00190 -0.00183 5.65817 2.23178 20.39742 -22.30363 -0.00469 -0.00585 15.16896 4.47211 4.14377 -4.87701 -1.04397 3.60800 40.90580 11.75460 -3.91034 -2.66500 -0.00001 0.00001 -0.00000 0.00000 -5.00001 -2.54299 -0.00002 -0.00001 -0.00001 -0.00000 -60.00000 -9.23201 -0.30097 2.14403 -2.00000 0.00000 -0.00000 -4.22500 0.00001 0.00000 -2.00000 0.00000 -0.00000 -2.65399 -0.00002 -0.00001 -2.00000 0.00000 -0.00000 -8.92001 0.00002 0.00000 80.00000 -0.00000 0.00000 -4.86301 0.00000 0.00000 90.00000 -0.00000 0.00001 -2.76501 0.00001 -0.00002 70.00000 -0.00001 0.00000 -8.68901 -0.12599 -2.08700 80.00000 -0.00000 0.00000 -4.53803 0.00000 0.00000 90.00000 -0.00000 0.00001 -2.30500 0.00001 0.00002 70.00000 -0.00001 0.00000 -8.39100 -0.81699 -3.75800 -2.00000 0.00000 -0.00000 -3.04400 -0.00001 0.00000 -2.00000 0.00000 -0.00000 -1.97499 0.00001 0.00000 -2.00000 0.00000 -0.00000 0.00002 0.72487 0.00000 0.00000 -0.00005 0.00000 0.00777 6.59955 0.00807 0.97090 -3.04796 -9.72252 
-105.75233 76.73629 -232.16112 0.16004 -0.80806 17.81807 7.70824 -0.07775 3.50602 -10.53247 -0.85124 -2.86684 -0.00261 -36.58693 -0.00352 15.92531 0.60989 -27.47126 0.00317 -34.05763 0.00065 18.66902 41.60434 -26.97708 -6.87591 1.21656 3.50607 1.37246 -8.99984 16.88405 0.00961 -29.80468 0.00612 8.72884 21.52225 8.91775 -0.00342 -39.77929 0.00713 0.85658 19.31639 -2.03154 0.00968 30.31191 0.01168 -0.28431 1.99112 -0.79152 0.00019 22.32410 0.00410 -0.35045 2.47415 -0.61126 1.64067 -0.59037 0.41491 -18.87638 4.67294 -13.40196 16.11771 0.01151 0.00842 -59.07208 1.85652 -3.76614 27.98968 0.00292 -0.00273 -5.40303 0.45883 -14.74689 22.26702 0.00291 -0.00414 -8.82197 0.15798 -6.99773 4.87701 -1.04401 3.60802 -25.20554 3.81814 -9.03976 2.66500 0.00000 0.00001 -0.00000 0.00000 9.84323 2.54300 0.00000 0.00001 0.00000 0.00000 16.41099 9.23201 -0.30100 2.14401 -21.88132 -0.00000 0.00000 4.22500 -0.00001 0.00000 -27.03810 0.00000 0.00000 2.65400 0.00001 -0.00001 -31.16389 2.50377 -4.14296 8.92000 0.00000 0.00002 -21.88132 -0.00000 0.00000 4.86299 0.00000 -0.00002 -27.03810 0.00000 0.00000 2.76501 -0.00001 -0.00002 -31.16389 2.50377 -4.14296 8.68901 -0.12600 -2.08699 -21.88132 -0.00000 0.00000 4.53799 -0.00001 -0.00002 -27.03810 0.00000 0.00000 2.30501 -0.00001 -0.00001 -31.16389 2.50377 -4.14296 8.39101 -0.81700 -3.75799 -21.88132 -0.00000 0.00000 3.04399 0.00000 0.00000 -27.03810 0.00000 0.00000 1.97500 0.00000 0.00002 -31.16389 2.50377 -4.14296 -1.52712 -0.60176 0.42004 20.47411 5.43990 14.23798 -15.20170 0.00018 -0.00221 54.33714 0.51312 -0.05148 -25.84834 0.00190 -0.00183 5.60810 2.22633 20.41437 -22.30363 -0.00469 -0.00585 15.60928 4.65432 4.45658 -4.87701 -1.04397 3.60800 40.90580 11.75460 -3.91034 -2.66500 -0.00001 0.00001 -0.00000 0.00000 -5.00001 -2.54299 -0.00002 -0.00001 -0.00001 -0.00000 -60.00000 -9.23201 -0.30097 2.14403 -2.00000 0.00000 -0.00000 -4.22500 0.00001 0.00000 -2.00000 0.00000 -0.00000 -2.65399 -0.00002 -0.00001 -2.00000 0.00000 -0.00000 -8.92001 0.00002 0.00000 80.00000 -0.00000 0.00000 -4.86301 0.00000 0.00000 90.00000 -0.00000 0.00001 -2.76501 0.00001 -0.00002 70.00000 -0.00001 0.00000 -8.68901 -0.12599 -2.08700 80.00000 -0.00000 0.00000 -4.53803 0.00000 0.00000 90.00000 -0.00000 0.00001 -2.30500 0.00001 0.00002 70.00000 -0.00001 0.00000 -8.39100 -0.81699 -3.75800 -2.00000 0.00000 -0.00000 -3.04400 -0.00001 0.00000 -2.00000 0.00000 -0.00000 -1.97499 0.00001 0.00000 -2.00000 0.00000 -0.00000 0.00002 0.72487 0.00000 0.00000 -0.00005 0.00000 0.00777 6.59955 0.00807 1.04391 -3.05871 -9.72342 
-105.74243 76.73629 -232.16112 0.16004 -0.80806 17.81807 7.70824 -0.07775 3.50602 -10.52881 -0.85121 -2.90798 -0.00261 -36.58693 -0.00352 15.88153 0.70771 -27.66477 0.00317 -34.05763 0.00065 17.89884 42.31806 -25.64858 -6.87591 1.21656 3.50607 1.37494 -8.99830 16.86447 0.00961 -29.80468 0.00612 8.72588 21.55237 8.88684 -0.00342 -39.77929 0.00713 0.49487 17.23445 -1.10760 0.00968 30.31191 0.01168 -0.28396 1.98950 -0.80215 0.00019 22.32410 0.00410 -0.35000 2.47415 -0.62179 1.64067 -0.59037 0.41491 -18.84273 4.65356 -13.37319 16.11771 0.01151 0.00842 -59.13039 1.87485 -3.76618 27.98968 0.00292 -0.00273 -5.39108 0.45626 -14.73969 22.26702 0.00291 -0.00414 -9.22210 0.40851 -7.20085 4.87701 -1.04401 3.60802 -24.99796 3.96835 -9.05505 2.66500 0.00000 0.00001 -0.00000 0.00000 9.90352 2.54300 0.00000 0.00001 0.00000 0.00000 15.86828 9.23201 -0.30100 2.14401 -21.15770 -0.00000 0.00000 4.22500 -0.00001 0.00000 -26.25417 0.00000 0.00000 2.65400 0.00001 -0.00001 -30.67974 2.50354 -4.21585 8.92000 0.00000 0.00002 -21.15770 -0.00000 0.00000 4.86299 0.00000 -0.00002 -26.25417 0.00000 0.00000 2.76501 -0.00001 -0.00002 -30.67974 2.50354 -4.21585 8.68901 -0.12600 -2.08699 -21.15770 -0.00000 0.00000 4.53799 -0.00001 -0.00002 -26.25417 0.00000 0.00000 2.30501 -0.00001 -0.00001 -30.67974 2.50354 -4.21585 8.39101 -0.81700 -3.75799 -21.15770 -0.00000 0.00000 3.04399 0.00000 0.00000 -26.25417 0.00000 0.00000 1.97500 0.00000 0.00002 -30.67974 2.50354 -4.21585 -1.52712 -0.60176 0.42004 20.48053 5.42682 14.20697 -15.20529 0.00018 -0.00221 54.40586 0.53545 -0.03233 -25.86051 0.00190 -0.00183 5.58775 2.21739 20.41965 -22.30363 -0.00469 -0.00585 15.74164 4.81107 4.85134 -4.87701 -1.04397 3.60800 40.90840 11.73975 -3.92791 -2.66500 -0.00001 0.00001 -0.00000 0.00000 -5.00001 -2.54299 -0.00002 -0.00001 -0.00001 -0.00000 -60.00000 -9.23201 -0.30097 2.14403 -2.12437 0.00000 -0.00000 -4.22500 0.00001 0.00000 -2.13954 0.00000 -0.00000 -2.65399 -0.00002 -0.00001 -2.10920 0.00000 -0.00000 -8.92001 0.00002 0.00000 80.00000 -0.00000 0.00000 -4.86301 0.00000 0.00000 90.00000 -0.00000 0.00001 -2.76501 0.00001 -0.00002 70.00000 -0.00001 0.00000 -8.68901 -0.12599 -2.08700 80.00000 -0.00000 0.00000 -4.53803 0.00000 0.00000 90.00000 -0.00000 0.00001 -2.30500 0.00001 0.00002 70.00000 -0.00001 0.00000 -8.39100 -0.81699 -3.75800 -2.12437 0.00000 -0.00000 -3.04400 -0.00001 0.00000 -2.13954 0.00000 -0.00000 -1.97499 0.00001 0.00000 -2.10920 0.00000 -0.00000 0.00002 0.72487 0.00000 0.00000 -0.00005 0.00000 0.00777 6.59955 0.00807 1.10378 -3.08274 -9.66841 
-105.72535 76.73573 -232.16112 0.15956 -0.80684 17.81806 7.70824 -0.07760 3.50602 -10.54432 -0.84960 -2.94847 -0.00261 -36.58693 -0.00352 15.86421 0.77149 -27.75437 0.00317 -34.05763 0.00065 17.43983 42.72557 -24.86634 -6.87591 1.21656 3.50607 1.38842 -8.99605 16.87096 0.00961 -29.80468 0.00612 8.69844 21.53640 8.92409 -0.00342 -39.77929 0.00713 0.27493 15.58282 -0.48346 0.00968 30.31191 0.01168 -0.28352 1.98774 -0.81565 0.00019 22.32410 0.00410 -0.34941 2.47414 -0.63537 1.64067 -0.59037 0.41491 -18.82474 4.63975 -13.34819 16.12205 0.01151 0.00842 -59.17177 1.88526 -3.76296 27.98968 0.00292 -0.00273 -5.38790 0.47720 -14.74539 22.26702 0.00291 -0.00414 -9.48229 0.65842 -7.44709 4.87701 -1.04401 3.60802 -24.86990 4.06096 -9.06447 2.66500 0.00000 0.00001 -0.00000 0.00000 9.94071 2.54300 0.00000 0.00001 0.00000 0.00000 15.53356 9.23201 -0.30100 2.14401 -20.71141 -0.00000 0.00000 4.22500 -0.00001 0.00000 -25.77070 0.00000 0.00000 2.65400 0.00001 -0.00001 -30.38114 2.50339 -4.26090 8.92000 0.00000 0.00002 -20.71141 -0.00000 0.00000 4.86299 0.00000 -0.00002 -25.77070 0.00000 0.00000 2.76501 -0.00001 -0.00002 -30.38114 2.50339 -4.26090 8.68901 -0.12600 -2.08699 -20.71141 -0.00000 0.00000 4.53799 -0.00001 -0.00002 -25.77070 0.00000 0.00000 2.30501 -0.00001 -0.00001 -30.38114 2.50339 -4.26090 8.39101 -0.81700 -3.75799 -20.71141 -0.00000 0.00000 3.04399 0.00000 0.00000 -25.77070 0.00000 0.00000 1.97500 0.00000 0.00002 -30.38114 2.50339 -4.26090 -1.52712 -0.60176 0.42004 20.48538 5.41745 14.18222 -15.20813 0.00018 -0.00221 54.44747 0.55923 -0.01195 -25.87010 0.00190 -0.00183 5.63419 2.19579 20.38526 -22.30363 -0.00469 -0.00585 15.83564 4.86097 4.92846 -4.87701 -1.04397 3.60800 40.86195 11.96241 -3.66406 -2.66500 -0.00001 0.00001 -0.00000 0.00000 -5.00001 -2.54299 -0.00002 -0.00001 -0.00001 -0.00000 -60.00000 -9.23201 -0.30097 2.14403 -0.25928 0.00000 -0.00000 -4.22500 0.00001 0.00000 -0.04699 0.00000 -0.00000 -2.65399 -0.00002 -0.00001 -0.47156 0.00000 -0.00000 -8.92001 0.00002 0.00000 80.00000 -0.00000 0.00000 -4.86301 0.00000 0.00000 90.00000 -0.00000 0.00001 -2.76501 0.00001 -0.00002 70.00000 -0.00001 0.00000 -8.68901 -0.12599 -2.08700 80.00000 -0.00000 0.00000 -4.53803 0.00000 0.00000 90.00000 -0.00000 0.00001 -2.30500 0.00001 0.00002 70.00000 -0.00001 0.00000 -8.39100 -0.81699 -3.75800 -0.25928 0.00000 -0.00000 -3.04400 -0.00001 0.00000 -0.04699 0.00000 -0.00000 -1.97499 0.00001 0.00000 -0.47156 0.00000 -0.00000 0.00002 0.72487 0.00000 0.00000 -0.00005 0.00000 0.00777 6.59955 0.00807 1.13106 -3.07929 -9.57085 
